<mxfile host="app.diagrams.net" modified="2022-06-01T12:54:52.894Z" agent="5.0 (Windows NT 10.0; Win64; x64) AppleWebKit/537.36 (KHTML, like Gecko) Chrome/101.0.4951.67 Safari/537.36" etag="tGtw6YIgCshNttdaQzlC" version="18.1.3" type="github">
  <diagram id="XYHYZrMIhY9wPdyfmt_G" name="第 1 页">
    <mxGraphModel dx="1038" dy="1740" grid="1" gridSize="10" guides="1" tooltips="1" connect="1" arrows="1" fold="1" page="1" pageScale="1" pageWidth="827" pageHeight="1169" math="0" shadow="0">
      <root>
        <mxCell id="0" />
        <mxCell id="1" parent="0" />
        <mxCell id="VnvnDfAmfmBRrIjKUJMi-20" value="" style="rounded=0;whiteSpace=wrap;html=1;fontSize=13;strokeWidth=2;fillColor=none;dashed=1;" vertex="1" parent="1">
          <mxGeometry x="130" y="240" width="210" height="560" as="geometry" />
        </mxCell>
        <mxCell id="VnvnDfAmfmBRrIjKUJMi-3" style="edgeStyle=orthogonalEdgeStyle;rounded=0;orthogonalLoop=1;jettySize=auto;html=1;entryX=0.5;entryY=0;entryDx=0;entryDy=0;fontSize=13;" edge="1" parent="1" source="VnvnDfAmfmBRrIjKUJMi-1" target="VnvnDfAmfmBRrIjKUJMi-2">
          <mxGeometry relative="1" as="geometry" />
        </mxCell>
        <mxCell id="VnvnDfAmfmBRrIjKUJMi-1" value="商机跟进" style="ellipse;whiteSpace=wrap;html=1;strokeWidth=2;fontSize=13;" vertex="1" parent="1">
          <mxGeometry x="320" width="120" height="80" as="geometry" />
        </mxCell>
        <mxCell id="VnvnDfAmfmBRrIjKUJMi-5" style="edgeStyle=orthogonalEdgeStyle;rounded=0;orthogonalLoop=1;jettySize=auto;html=1;entryX=0.5;entryY=0;entryDx=0;entryDy=0;fontSize=13;" edge="1" parent="1" source="VnvnDfAmfmBRrIjKUJMi-2" target="VnvnDfAmfmBRrIjKUJMi-4">
          <mxGeometry relative="1" as="geometry" />
        </mxCell>
        <mxCell id="VnvnDfAmfmBRrIjKUJMi-2" value="设计表" style="rounded=1;whiteSpace=wrap;html=1;fontSize=13;strokeWidth=2;" vertex="1" parent="1">
          <mxGeometry x="320" y="150" width="120" height="60" as="geometry" />
        </mxCell>
        <mxCell id="VnvnDfAmfmBRrIjKUJMi-11" style="edgeStyle=orthogonalEdgeStyle;rounded=0;orthogonalLoop=1;jettySize=auto;html=1;entryX=0.75;entryY=0;entryDx=0;entryDy=0;fontSize=13;" edge="1" parent="1" source="VnvnDfAmfmBRrIjKUJMi-4" target="VnvnDfAmfmBRrIjKUJMi-6">
          <mxGeometry relative="1" as="geometry">
            <Array as="points">
              <mxPoint x="270" y="330" />
              <mxPoint x="270" y="330" />
            </Array>
          </mxGeometry>
        </mxCell>
        <mxCell id="VnvnDfAmfmBRrIjKUJMi-4" value="新增一条商机跟进记录" style="rounded=1;whiteSpace=wrap;html=1;fontSize=13;strokeWidth=2;" vertex="1" parent="1">
          <mxGeometry x="180" y="260" width="120" height="60" as="geometry" />
        </mxCell>
        <mxCell id="VnvnDfAmfmBRrIjKUJMi-12" style="edgeStyle=orthogonalEdgeStyle;rounded=0;orthogonalLoop=1;jettySize=auto;html=1;exitX=0.75;exitY=1;exitDx=0;exitDy=0;entryX=0.75;entryY=0;entryDx=0;entryDy=0;fontSize=13;" edge="1" parent="1" source="VnvnDfAmfmBRrIjKUJMi-6" target="VnvnDfAmfmBRrIjKUJMi-7">
          <mxGeometry relative="1" as="geometry" />
        </mxCell>
        <mxCell id="VnvnDfAmfmBRrIjKUJMi-18" style="edgeStyle=orthogonalEdgeStyle;rounded=0;orthogonalLoop=1;jettySize=auto;html=1;exitX=0.25;exitY=0;exitDx=0;exitDy=0;entryX=0.25;entryY=1;entryDx=0;entryDy=0;fontSize=13;" edge="1" parent="1" source="VnvnDfAmfmBRrIjKUJMi-6" target="VnvnDfAmfmBRrIjKUJMi-4">
          <mxGeometry relative="1" as="geometry" />
        </mxCell>
        <mxCell id="VnvnDfAmfmBRrIjKUJMi-6" value="controller层" style="rounded=1;whiteSpace=wrap;html=1;fontSize=13;strokeWidth=2;" vertex="1" parent="1">
          <mxGeometry x="180" y="380" width="120" height="60" as="geometry" />
        </mxCell>
        <mxCell id="VnvnDfAmfmBRrIjKUJMi-13" style="edgeStyle=orthogonalEdgeStyle;rounded=0;orthogonalLoop=1;jettySize=auto;html=1;exitX=0.75;exitY=1;exitDx=0;exitDy=0;entryX=0.75;entryY=0;entryDx=0;entryDy=0;fontSize=13;" edge="1" parent="1" source="VnvnDfAmfmBRrIjKUJMi-7" target="VnvnDfAmfmBRrIjKUJMi-8">
          <mxGeometry relative="1" as="geometry" />
        </mxCell>
        <mxCell id="VnvnDfAmfmBRrIjKUJMi-17" style="edgeStyle=orthogonalEdgeStyle;rounded=0;orthogonalLoop=1;jettySize=auto;html=1;exitX=0.25;exitY=0;exitDx=0;exitDy=0;entryX=0.25;entryY=1;entryDx=0;entryDy=0;fontSize=13;" edge="1" parent="1" source="VnvnDfAmfmBRrIjKUJMi-7" target="VnvnDfAmfmBRrIjKUJMi-6">
          <mxGeometry relative="1" as="geometry" />
        </mxCell>
        <mxCell id="VnvnDfAmfmBRrIjKUJMi-7" value="service" style="rounded=1;whiteSpace=wrap;html=1;fontSize=13;strokeWidth=2;" vertex="1" parent="1">
          <mxGeometry x="180" y="480" width="120" height="60" as="geometry" />
        </mxCell>
        <mxCell id="VnvnDfAmfmBRrIjKUJMi-14" style="edgeStyle=orthogonalEdgeStyle;rounded=0;orthogonalLoop=1;jettySize=auto;html=1;exitX=0.75;exitY=1;exitDx=0;exitDy=0;entryX=0.75;entryY=0;entryDx=0;entryDy=0;fontSize=13;" edge="1" parent="1" source="VnvnDfAmfmBRrIjKUJMi-8" target="VnvnDfAmfmBRrIjKUJMi-9">
          <mxGeometry relative="1" as="geometry" />
        </mxCell>
        <mxCell id="VnvnDfAmfmBRrIjKUJMi-16" style="edgeStyle=orthogonalEdgeStyle;rounded=0;orthogonalLoop=1;jettySize=auto;html=1;exitX=0.25;exitY=0;exitDx=0;exitDy=0;entryX=0.25;entryY=1;entryDx=0;entryDy=0;fontSize=13;" edge="1" parent="1" source="VnvnDfAmfmBRrIjKUJMi-8" target="VnvnDfAmfmBRrIjKUJMi-7">
          <mxGeometry relative="1" as="geometry" />
        </mxCell>
        <mxCell id="VnvnDfAmfmBRrIjKUJMi-8" value="dao" style="rounded=0;whiteSpace=wrap;html=1;fontSize=13;strokeWidth=2;" vertex="1" parent="1">
          <mxGeometry x="180" y="600" width="120" height="60" as="geometry" />
        </mxCell>
        <mxCell id="VnvnDfAmfmBRrIjKUJMi-15" style="edgeStyle=orthogonalEdgeStyle;rounded=0;orthogonalLoop=1;jettySize=auto;html=1;exitX=0.25;exitY=0;exitDx=0;exitDy=0;entryX=0.25;entryY=1;entryDx=0;entryDy=0;fontSize=13;" edge="1" parent="1" source="VnvnDfAmfmBRrIjKUJMi-9" target="VnvnDfAmfmBRrIjKUJMi-8">
          <mxGeometry relative="1" as="geometry" />
        </mxCell>
        <mxCell id="VnvnDfAmfmBRrIjKUJMi-9" value="数据库" style="rounded=1;whiteSpace=wrap;html=1;fontSize=13;strokeWidth=2;" vertex="1" parent="1">
          <mxGeometry x="180" y="710" width="120" height="60" as="geometry" />
        </mxCell>
        <mxCell id="VnvnDfAmfmBRrIjKUJMi-23" style="edgeStyle=orthogonalEdgeStyle;rounded=0;orthogonalLoop=1;jettySize=auto;html=1;fontSize=13;" edge="1" parent="1" source="VnvnDfAmfmBRrIjKUJMi-22">
          <mxGeometry relative="1" as="geometry">
            <mxPoint x="130" y="439" as="targetPoint" />
          </mxGeometry>
        </mxCell>
        <mxCell id="VnvnDfAmfmBRrIjKUJMi-22" value="入参&lt;br&gt;返回值&lt;br&gt;请求方式" style="rounded=1;whiteSpace=wrap;html=1;fontSize=13;strokeWidth=2;fillColor=default;rotation=90;" vertex="1" parent="1">
          <mxGeometry y="390" width="120" height="60" as="geometry" />
        </mxCell>
      </root>
    </mxGraphModel>
  </diagram>
</mxfile>
